# xmcd
#
# Track frame offsets: 
#        150
#        16867
#        42292
#        55642
#        71580
#        85417
#        109755
#        131467
#        149430
#
# Disc length: 2262 seconds
#
# Revision: 0
# Processed by: cddbd v1.4PL0 Copyright (c) Steve Scherf et al.
# Submitted via: ExactAudioCopy v0.90b2
#
DISCID=7508d409
DTITLE=James Booker - New Orleans Piano Wizard: Live!
DYEAR=1977
DGENRE=Blues
TTITLE0=On the Sunny Side of the Street
TTITLE1=Black Night
TTITLE2=Keep on Gwine
TTITLE3=Come Rain or Come Shine
TTITLE4=Something Stupid
TTITLE5=Please Send Me Someone to Love
TTITLE6=Tell Me How You Feel
TTITLE7=Let Them Talk
TTITLE8=Come in My House
EXTD=
EXTT0=
EXTT1=
EXTT2=
EXTT3=
EXTT4=
EXTT5=
EXTT6=
EXTT7=
EXTT8=
PLAYORDER=
